<svg width="21" height="21" viewBox="0 0 21 21" fill="none" xmlns="http://www.w3.org/2000/svg">
<path d="M1 20C1 17 2.85 14.64 6.08 14C8.5 13.52 11 12 12 11M9.99998 19C8.24404 19.0053 6.55023 18.3505 5.2545 17.1654C3.95876 15.9803 3.15575 14.3515 3.00471 12.6021C2.85368 10.8527 3.36567 9.11036 4.43913 7.72074C5.51259 6.33112 7.06911 5.3957 8.79998 5.1C14.5 4 16 3.48 18 1C19 3 20 5.18 20 9C20 14.5 15.22 19 9.99998 19Z" stroke="white" stroke-width="2" stroke-linecap="round" stroke-linejoin="round"/>
</svg>
