<svg width="206" height="1064" viewBox="0 0 206 1064" fill="none" xmlns="http://www.w3.org/2000/svg">
<g clip-path="url(#clip0_182_80)">
<g filter="url(#filter0_i_182_80)">
<path d="M-64 20.2188C-52.5 65.2188 -28.5 61.7188 15 115.219C58.5 168.719 -58.4111 224.219 -30.9111 312.719C-7.9464 386.623 50.5872 352.219 27.5 456.719C15 513.298 -21 532.219 88 633.719C113.59 657.548 137 670.719 137 725.219C137 779.719 45 783.219 -6.5 825.719C-60.837 870.56 -92 905.219 -92 934.719" stroke="#1C201A" stroke-opacity="0.74" stroke-width="26"/>
</g>
<g filter="url(#filter1_i_182_80)">
<path d="M-15.0001 3.21875C-3.5001 48.2188 17.499 47.3054 63.9999 98.2188C132.5 173.219 -30.5361 216.826 18.0888 295.719C59.9999 363.719 92.4999 349.719 63.9999 478.719C46.7673 556.719 94.9969 546.277 169.5 648.719C213.5 709.219 191.5 769.219 138.5 812.219C85.4999 855.219 18.0888 852.219 -37.5001 912.719C-91.3071 971.279 -24.0001 1033.72 -24.0001 1063.22" stroke="#1C201A" stroke-opacity="0.59" stroke-width="26"/>
</g>
<g filter="url(#filter2_i_182_80)">
<path d="M-134 11.2188C-122.5 56.2188 -98.5 52.7188 -55 106.219C-11.5 159.719 -128.411 215.219 -100.911 303.719C-77.9464 377.623 -19.4128 343.219 -42.5 447.719C-55 504.298 -91 523.219 18 624.719C43.5898 648.548 87 689.219 67 716.219C47 743.219 -31.5 740.219 -83 782.719C-137.337 827.56 -162 896.219 -162 925.719" stroke="#1C201A" stroke-width="26"/>
</g>
</g>
<defs>
<filter id="filter0_i_182_80" x="-105" y="17" width="255" height="921.719" filterUnits="userSpaceOnUse" color-interpolation-filters="sRGB">
<feFlood flood-opacity="0" result="BackgroundImageFix"/>
<feBlend mode="normal" in="SourceGraphic" in2="BackgroundImageFix" result="shape"/>
<feColorMatrix in="SourceAlpha" type="matrix" values="0 0 0 0 0 0 0 0 0 0 0 0 0 0 0 0 0 0 127 0" result="hardAlpha"/>
<feOffset dy="4"/>
<feGaussianBlur stdDeviation="2"/>
<feComposite in2="hardAlpha" operator="arithmetic" k2="-1" k3="1"/>
<feColorMatrix type="matrix" values="0 0 0 0 0 0 0 0 0 0 0 0 0 0 0 0 0 0 0.25 0"/>
<feBlend mode="normal" in2="shape" result="effect1_innerShadow_182_80"/>
</filter>
<filter id="filter1_i_182_80" x="-71.3545" y="0" width="277.363" height="1067.22" filterUnits="userSpaceOnUse" color-interpolation-filters="sRGB">
<feFlood flood-opacity="0" result="BackgroundImageFix"/>
<feBlend mode="normal" in="SourceGraphic" in2="BackgroundImageFix" result="shape"/>
<feColorMatrix in="SourceAlpha" type="matrix" values="0 0 0 0 0 0 0 0 0 0 0 0 0 0 0 0 0 0 127 0" result="hardAlpha"/>
<feOffset dy="4"/>
<feGaussianBlur stdDeviation="2"/>
<feComposite in2="hardAlpha" operator="arithmetic" k2="-1" k3="1"/>
<feColorMatrix type="matrix" values="0 0 0 0 0 0 0 0 0 0 0 0 0 0 0 0 0 0 0.25 0"/>
<feBlend mode="normal" in2="shape" result="effect1_innerShadow_182_80"/>
</filter>
<filter id="filter2_i_182_80" x="-175" y="8" width="260.107" height="921.719" filterUnits="userSpaceOnUse" color-interpolation-filters="sRGB">
<feFlood flood-opacity="0" result="BackgroundImageFix"/>
<feBlend mode="normal" in="SourceGraphic" in2="BackgroundImageFix" result="shape"/>
<feColorMatrix in="SourceAlpha" type="matrix" values="0 0 0 0 0 0 0 0 0 0 0 0 0 0 0 0 0 0 127 0" result="hardAlpha"/>
<feOffset dy="4"/>
<feGaussianBlur stdDeviation="2"/>
<feComposite in2="hardAlpha" operator="arithmetic" k2="-1" k3="1"/>
<feColorMatrix type="matrix" values="0 0 0 0 0 0 0 0 0 0 0 0 0 0 0 0 0 0 0.25 0"/>
<feBlend mode="normal" in2="shape" result="effect1_innerShadow_182_80"/>
</filter>
<clipPath id="clip0_182_80">
<rect width="206" height="1064" fill="white"/>
</clipPath>
</defs>
</svg>
